<?xml version="1.0" encoding="UTF-8" standalone="no"?><svg xmlns="http://www.w3.org/2000/svg" xmlns:xlink="http://www.w3.org/1999/xlink" contentScriptType="application/ecmascript" contentStyleType="text/css" height="182px" preserveAspectRatio="none" style="width:397px;height:182px;" version="1.1" viewBox="0 0 397 182" width="397px" zoomAndPan="magnify"><defs><filter height="300%" id="f1xq23qx5g0aio" width="300%" x="-1" y="-1"><feGaussianBlur result="blurOut" stdDeviation="2.0"/><feColorMatrix in="blurOut" result="blurOut2" type="matrix" values="0 0 0 0 0 0 0 0 0 0 0 0 0 0 0 0 0 0 .4 0"/><feOffset dx="4.0" dy="4.0" in="blurOut2" result="blurOut3"/><feBlend in="SourceGraphic" in2="blurOut3" mode="normal"/></filter></defs><g><!--MD5=[4b6b72ab2d91af8aceaf16224dbc68a6]
class HotelEmployee--><rect fill="#FEFECE" filter="url(#f1xq23qx5g0aio)" height="48" id="HotelEmployee" style="stroke: #A80036; stroke-width: 1.5;" width="124" x="7" y="7"/><ellipse cx="22" cy="23" fill="#ADD1B2" rx="11" ry="11" style="stroke: #A80036; stroke-width: 1.0;"/><path d="M24.3438,18.6719 C23.4063,18.2344 22.8125,18.0938 21.9375,18.0938 C19.3125,18.0938 17.3125,20.1719 17.3125,22.8906 L17.3125,24.0156 C17.3125,26.5938 19.4219,28.4844 22.3125,28.4844 C23.5313,28.4844 24.6875,28.1875 25.4375,27.6406 C26.0156,27.2344 26.3438,26.7813 26.3438,26.3906 C26.3438,25.9375 25.9531,25.5469 25.4844,25.5469 C25.2656,25.5469 25.0625,25.625 24.875,25.8125 C24.4219,26.2969 24.4219,26.2969 24.2344,26.3906 C23.8125,26.6563 23.125,26.7813 22.3594,26.7813 C20.3125,26.7813 19.0156,25.6875 19.0156,23.9844 L19.0156,22.8906 C19.0156,21.1094 20.2656,19.7969 22,19.7969 C22.5781,19.7969 23.1875,19.9531 23.6563,20.2031 C24.1406,20.4844 24.3125,20.7031 24.4063,21.1094 C24.4688,21.5156 24.5,21.6406 24.6406,21.7656 C24.7813,21.9063 25.0156,22.0156 25.2344,22.0156 C25.5,22.0156 25.7656,21.875 25.9375,21.6563 C26.0469,21.5 26.0781,21.3125 26.0781,20.8906 L26.0781,19.4688 C26.0781,19.0313 26.0625,18.9063 25.9688,18.75 C25.8125,18.4844 25.5313,18.3438 25.2344,18.3438 C24.9375,18.3438 24.7344,18.4375 24.5156,18.75 L24.3438,18.6719 Z "/><text fill="#000000" font-family="sans-serif" font-size="12" lengthAdjust="spacingAndGlyphs" textLength="92" x="36" y="27.1543">HotelEmployee</text><line style="stroke: #A80036; stroke-width: 1.5;" x1="8" x2="130" y1="39" y2="39"/><line style="stroke: #A80036; stroke-width: 1.5;" x1="8" x2="130" y1="47" y2="47"/><!--MD5=[c053a105bcf153d42bf1c80326010135]
class Clock--><rect fill="#FEFECE" filter="url(#f1xq23qx5g0aio)" height="48" id="Clock" style="stroke: #A80036; stroke-width: 1.5;" width="65" x="166.5" y="7"/><ellipse cx="181.5" cy="23" fill="#ADD1B2" rx="11" ry="11" style="stroke: #A80036; stroke-width: 1.0;"/><path d="M183.8438,18.6719 C182.9063,18.2344 182.3125,18.0938 181.4375,18.0938 C178.8125,18.0938 176.8125,20.1719 176.8125,22.8906 L176.8125,24.0156 C176.8125,26.5938 178.9219,28.4844 181.8125,28.4844 C183.0313,28.4844 184.1875,28.1875 184.9375,27.6406 C185.5156,27.2344 185.8438,26.7813 185.8438,26.3906 C185.8438,25.9375 185.4531,25.5469 184.9844,25.5469 C184.7656,25.5469 184.5625,25.625 184.375,25.8125 C183.9219,26.2969 183.9219,26.2969 183.7344,26.3906 C183.3125,26.6563 182.625,26.7813 181.8594,26.7813 C179.8125,26.7813 178.5156,25.6875 178.5156,23.9844 L178.5156,22.8906 C178.5156,21.1094 179.7656,19.7969 181.5,19.7969 C182.0781,19.7969 182.6875,19.9531 183.1563,20.2031 C183.6406,20.4844 183.8125,20.7031 183.9063,21.1094 C183.9688,21.5156 184,21.6406 184.1406,21.7656 C184.2813,21.9063 184.5156,22.0156 184.7344,22.0156 C185,22.0156 185.2656,21.875 185.4375,21.6563 C185.5469,21.5 185.5781,21.3125 185.5781,20.8906 L185.5781,19.4688 C185.5781,19.0313 185.5625,18.9063 185.4688,18.75 C185.3125,18.4844 185.0313,18.3438 184.7344,18.3438 C184.4375,18.3438 184.2344,18.4375 184.0156,18.75 L183.8438,18.6719 Z "/><text fill="#000000" font-family="sans-serif" font-size="12" lengthAdjust="spacingAndGlyphs" textLength="33" x="195.5" y="27.1543">Clock</text><line style="stroke: #A80036; stroke-width: 1.5;" x1="167.5" x2="230.5" y1="39" y2="39"/><line style="stroke: #A80036; stroke-width: 1.5;" x1="167.5" x2="230.5" y1="47" y2="47"/><!--MD5=[4dfbbbea86124ed90b8eb0cf8b2cadd0]
class UtcTime--><rect fill="#FEFECE" filter="url(#f1xq23qx5g0aio)" height="48" id="UtcTime" style="stroke: #A80036; stroke-width: 1.5;" width="81" x="39.5" y="115"/><ellipse cx="54.5" cy="131" fill="#ADD1B2" rx="11" ry="11" style="stroke: #A80036; stroke-width: 1.0;"/><path d="M56.8438,126.6719 C55.9063,126.2344 55.3125,126.0938 54.4375,126.0938 C51.8125,126.0938 49.8125,128.1719 49.8125,130.8906 L49.8125,132.0156 C49.8125,134.5938 51.9219,136.4844 54.8125,136.4844 C56.0313,136.4844 57.1875,136.1875 57.9375,135.6406 C58.5156,135.2344 58.8438,134.7813 58.8438,134.3906 C58.8438,133.9375 58.4531,133.5469 57.9844,133.5469 C57.7656,133.5469 57.5625,133.625 57.375,133.8125 C56.9219,134.2969 56.9219,134.2969 56.7344,134.3906 C56.3125,134.6563 55.625,134.7813 54.8594,134.7813 C52.8125,134.7813 51.5156,133.6875 51.5156,131.9844 L51.5156,130.8906 C51.5156,129.1094 52.7656,127.7969 54.5,127.7969 C55.0781,127.7969 55.6875,127.9531 56.1563,128.2031 C56.6406,128.4844 56.8125,128.7031 56.9063,129.1094 C56.9688,129.5156 57,129.6406 57.1406,129.7656 C57.2813,129.9063 57.5156,130.0156 57.7344,130.0156 C58,130.0156 58.2656,129.875 58.4375,129.6563 C58.5469,129.5 58.5781,129.3125 58.5781,128.8906 L58.5781,127.4688 C58.5781,127.0313 58.5625,126.9063 58.4688,126.75 C58.3125,126.4844 58.0313,126.3438 57.7344,126.3438 C57.4375,126.3438 57.2344,126.4375 57.0156,126.75 L56.8438,126.6719 Z "/><text fill="#000000" font-family="sans-serif" font-size="12" lengthAdjust="spacingAndGlyphs" textLength="49" x="68.5" y="135.1543">UtcTime</text><line style="stroke: #A80036; stroke-width: 1.5;" x1="40.5" x2="119.5" y1="147" y2="147"/><line style="stroke: #A80036; stroke-width: 1.5;" x1="40.5" x2="119.5" y1="155" y2="155"/><!--MD5=[822757778b4f4dba27b549d236f6257b]
class CityClock--><rect fill="#FEFECE" filter="url(#f1xq23qx5g0aio)" height="48" id="CityClock" style="stroke: #A80036; stroke-width: 1.5;" width="87" x="155.5" y="115"/><ellipse cx="170.5" cy="131" fill="#ADD1B2" rx="11" ry="11" style="stroke: #A80036; stroke-width: 1.0;"/><path d="M172.8438,126.6719 C171.9063,126.2344 171.3125,126.0938 170.4375,126.0938 C167.8125,126.0938 165.8125,128.1719 165.8125,130.8906 L165.8125,132.0156 C165.8125,134.5938 167.9219,136.4844 170.8125,136.4844 C172.0313,136.4844 173.1875,136.1875 173.9375,135.6406 C174.5156,135.2344 174.8438,134.7813 174.8438,134.3906 C174.8438,133.9375 174.4531,133.5469 173.9844,133.5469 C173.7656,133.5469 173.5625,133.625 173.375,133.8125 C172.9219,134.2969 172.9219,134.2969 172.7344,134.3906 C172.3125,134.6563 171.625,134.7813 170.8594,134.7813 C168.8125,134.7813 167.5156,133.6875 167.5156,131.9844 L167.5156,130.8906 C167.5156,129.1094 168.7656,127.7969 170.5,127.7969 C171.0781,127.7969 171.6875,127.9531 172.1563,128.2031 C172.6406,128.4844 172.8125,128.7031 172.9063,129.1094 C172.9688,129.5156 173,129.6406 173.1406,129.7656 C173.2813,129.9063 173.5156,130.0156 173.7344,130.0156 C174,130.0156 174.2656,129.875 174.4375,129.6563 C174.5469,129.5 174.5781,129.3125 174.5781,128.8906 L174.5781,127.4688 C174.5781,127.0313 174.5625,126.9063 174.4688,126.75 C174.3125,126.4844 174.0313,126.3438 173.7344,126.3438 C173.4375,126.3438 173.2344,126.4375 173.0156,126.75 L172.8438,126.6719 Z "/><text fill="#000000" font-family="sans-serif" font-size="12" lengthAdjust="spacingAndGlyphs" textLength="55" x="184.5" y="135.1543">CityClock</text><line style="stroke: #A80036; stroke-width: 1.5;" x1="156.5" x2="241.5" y1="147" y2="147"/><line style="stroke: #A80036; stroke-width: 1.5;" x1="156.5" x2="241.5" y1="155" y2="155"/><!--MD5=[22501566c415669ce4882a043a4123bf]
class PhoneClock--><rect fill="#FEFECE" filter="url(#f1xq23qx5g0aio)" height="48" id="PhoneClock" style="stroke: #A80036; stroke-width: 1.5;" width="101" x="277.5" y="115"/><ellipse cx="292.5" cy="131" fill="#ADD1B2" rx="11" ry="11" style="stroke: #A80036; stroke-width: 1.0;"/><path d="M294.8438,126.6719 C293.9063,126.2344 293.3125,126.0938 292.4375,126.0938 C289.8125,126.0938 287.8125,128.1719 287.8125,130.8906 L287.8125,132.0156 C287.8125,134.5938 289.9219,136.4844 292.8125,136.4844 C294.0313,136.4844 295.1875,136.1875 295.9375,135.6406 C296.5156,135.2344 296.8438,134.7813 296.8438,134.3906 C296.8438,133.9375 296.4531,133.5469 295.9844,133.5469 C295.7656,133.5469 295.5625,133.625 295.375,133.8125 C294.9219,134.2969 294.9219,134.2969 294.7344,134.3906 C294.3125,134.6563 293.625,134.7813 292.8594,134.7813 C290.8125,134.7813 289.5156,133.6875 289.5156,131.9844 L289.5156,130.8906 C289.5156,129.1094 290.7656,127.7969 292.5,127.7969 C293.0781,127.7969 293.6875,127.9531 294.1563,128.2031 C294.6406,128.4844 294.8125,128.7031 294.9063,129.1094 C294.9688,129.5156 295,129.6406 295.1406,129.7656 C295.2813,129.9063 295.5156,130.0156 295.7344,130.0156 C296,130.0156 296.2656,129.875 296.4375,129.6563 C296.5469,129.5 296.5781,129.3125 296.5781,128.8906 L296.5781,127.4688 C296.5781,127.0313 296.5625,126.9063 296.4688,126.75 C296.3125,126.4844 296.0313,126.3438 295.7344,126.3438 C295.4375,126.3438 295.2344,126.4375 295.0156,126.75 L294.8438,126.6719 Z "/><text fill="#000000" font-family="sans-serif" font-size="12" lengthAdjust="spacingAndGlyphs" textLength="69" x="306.5" y="135.1543">PhoneClock</text><line style="stroke: #A80036; stroke-width: 1.5;" x1="278.5" x2="377.5" y1="147" y2="147"/><line style="stroke: #A80036; stroke-width: 1.5;" x1="278.5" x2="377.5" y1="155" y2="155"/><!--MD5=[abedebc93932ad86ebbf8a71b70195f8]
link HotelEmployee to Clock--><path codeLine="1" d="M131.207,31 C141.205,31 151.202,31 161.2,31 " fill="none" id="HotelEmployee-to-Clock" style="stroke: #A80036; stroke-width: 1.0;"/><polygon fill="#A80036" points="166.428,31,157.428,27,161.428,31,157.428,35,166.428,31" style="stroke: #A80036; stroke-width: 1.0;"/><!--MD5=[11be0a6c3708cdfa7161b8d703d05d8f]
reverse link Clock to UtcTime--><path codeLine="2" d="M163.398,63.7125 C145.016,80.0869 122.983,99.7123 106.1818,114.6784 " fill="none" id="Clock-backto-UtcTime" style="stroke: #A80036; stroke-width: 1.0;"/><polygon fill="#FFFFFF" points="173.179,55,166.0382,56.0042,164.2187,62.982,171.3595,61.9778,173.179,55" style="stroke: #A80036; stroke-width: 1.0;"/><!--MD5=[cd95e26d135949b54e4bbdb398202b03]
reverse link Clock to CityClock--><path codeLine="3" d="M199,68.3383 C199,83.6813 199,101.098 199,114.6784 " fill="none" id="Clock-backto-CityClock" style="stroke: #A80036; stroke-width: 1.0;"/><polygon fill="#FFFFFF" points="199,55,195,61,199,67,203,61,199,55" style="stroke: #A80036; stroke-width: 1.0;"/><!--MD5=[ca979d9cad8a52ab927e387c0b24beca]
reverse link Clock to PhoneClock--><path codeLine="4" d="M237.041,63.2585 C257.078,79.723 281.236,99.5737 299.618,114.6784 " fill="none" id="Clock-backto-PhoneClock" style="stroke: #A80036; stroke-width: 1.0;"/><polygon fill="#FFFFFF" points="226.991,55,229.0876,61.8996,236.2628,62.618,234.1662,55.7184,226.991,55" style="stroke: #A80036; stroke-width: 1.0;"/><!--MD5=[2c865c85182bbc0f025744d5611476bf]
@startuml
HotelEmployee -> Clock
Clock o- - UtcTime
Clock o- - CityClock
Clock o- - PhoneClock
@enduml

PlantUML version 1.2020.17(Sat Sep 19 12:30:11 UTC 2020)
(GPL source distribution)
Java Runtime: Java(TM) SE Runtime Environment
JVM: Java HotSpot(TM) 64-Bit Server VM
Default Encoding: UTF-8
Language: en
Country: US
--></g></svg>